<?xml version="1.0" encoding="utf-8"?>
<!-- Generator: Adobe Illustrator 17.0.0, SVG Export Plug-In . SVG Version: 6.00 Build 0)  -->
<!DOCTYPE svg PUBLIC "-//W3C//DTD SVG 1.1//EN" "http://www.w3.org/Graphics/SVG/1.1/DTD/svg11.dtd">
<svg version="1.1" id="Camada_1" xmlns="http://www.w3.org/2000/svg" xmlns:xlink="http://www.w3.org/1999/xlink" x="0px" y="0px"
	 width="200px" height="46.32px" viewBox="0 0 200 46.32" enable-background="new 0 0 200 46.32" xml:space="preserve">
<g>
	<g>
		<path fill="#FFFFFF" d="M42.42,42.84c-1.13-0.14-2.03-0.35-2.7-0.61c-1.28-0.46-1.92-1.27-1.92-2.42V24.29
			c0-0.44,0.12-0.8,0.37-1.06s0.62-0.48,1.13-0.63c1.67-0.51,3.73-0.76,6.16-0.76c3.83,0,6.8,0.91,8.9,2.72
			c2.1,1.82,3.15,4.44,3.15,7.87c0,3.37-1.04,5.98-3.12,7.84c-2.08,1.86-4.94,2.79-8.58,2.79C44.68,43.06,43.55,42.98,42.42,42.84z
			 M43.87,38.21c0.74,0.11,1.4,0.17,1.98,0.17c1.72,0,3.05-0.49,3.99-1.48c0.94-0.99,1.41-2.44,1.41-4.37c0-1.9-0.48-3.38-1.43-4.43
			c-0.95-1.05-2.26-1.58-3.93-1.58c-0.86,0-1.53,0.04-2.02,0.13V38.21z"/>
		<path fill="#FFFFFF" d="M72.56,27.43c1.44,1.03,2.16,2.54,2.16,4.53v7.44c0,0.51-0.13,0.95-0.4,1.31
			c-0.27,0.37-0.7,0.71-1.31,1.05c-1.49,0.86-3.61,1.3-6.37,1.3c-2.58,0-4.57-0.46-5.97-1.38c-1.4-0.92-2.11-2.26-2.11-4.04
			c0-1.53,0.48-2.7,1.43-3.52c0.95-0.82,2.43-1.33,4.42-1.53l4.56-0.46V31.9c0-1.2-1.15-1.79-3.45-1.79c-1,0-2.15,0.16-3.45,0.46
			c-0.46,0.11-0.8,0.17-1.01,0.17c-0.46,0-0.82-0.18-1.08-0.55c-0.26-0.37-0.38-0.81-0.38-1.35c0-0.58,0.13-1.03,0.4-1.36
			c0.27-0.33,0.73-0.63,1.38-0.9c1.21-0.46,2.87-0.7,4.98-0.7C69.05,25.88,71.12,26.4,72.56,27.43z M68.01,38.82
			c0.45-0.08,0.78-0.18,0.99-0.32v-2.66l-2.51,0.2c-1.49,0.09-2.23,0.55-2.23,1.39c0,1,0.79,1.49,2.37,1.49
			C67.1,38.94,67.56,38.9,68.01,38.82z"/>
		<path fill="#FFFFFF" d="M88.45,41.69c-1.34,0.93-3.28,1.4-5.83,1.4c-2.11,0-3.77-0.29-4.96-0.88c-1.2-0.59-1.79-1.41-1.79-2.47
			c0-0.53,0.12-0.98,0.37-1.35c0.24-0.37,0.6-0.55,1.06-0.55c0.39,0,0.75,0.08,1.08,0.23c1.39,0.51,2.73,0.76,4,0.76
			c0.7,0,1.24-0.1,1.64-0.3c0.39-0.2,0.59-0.46,0.59-0.8c0-0.31-0.14-0.55-0.42-0.73c-0.28-0.18-0.74-0.32-1.39-0.43l-1.04-0.2
			c-2.09-0.4-3.61-1.01-4.56-1.83c-0.95-0.82-1.43-1.96-1.43-3.42c0-0.82,0.19-1.56,0.56-2.23c0.37-0.66,0.89-1.22,1.57-1.66
			c1.42-0.93,3.26-1.39,5.54-1.39c1.93,0,3.44,0.27,4.54,0.8c1.1,0.53,1.65,1.28,1.65,2.26c0,0.53-0.12,0.99-0.37,1.36
			c-0.24,0.38-0.6,0.56-1.06,0.56c-0.21,0-0.42-0.03-0.63-0.1l-1.04-0.3c-0.91-0.22-1.76-0.33-2.58-0.33
			c-0.86,0-1.46,0.08-1.81,0.23c-0.4,0.18-0.59,0.44-0.59,0.8c0,0.24,0.12,0.44,0.35,0.6c0.23,0.16,0.67,0.3,1.32,0.43l1.08,0.23
			c2.16,0.47,3.73,1.12,4.7,1.96c0.98,0.84,1.46,1.96,1.46,3.35C90.46,39.44,89.79,40.76,88.45,41.69z"/>
		<path fill="#FFFFFF" d="M108.15,40.96c0,0.75-0.2,1.26-0.59,1.51c-0.4,0.25-0.85,0.37-1.36,0.35l-0.7-0.03
			c-1.18,0-2.03-0.2-2.52-0.6c-0.5-0.4-0.75-1.08-0.75-2.06v-7.37c0-1.64-0.82-2.46-2.47-2.46c-0.88,0-1.66,0.19-2.33,0.56v10.1
			c0,0.75-0.2,1.26-0.59,1.51c-0.4,0.25-0.85,0.37-1.36,0.35l-0.7-0.03c-1.18,0-2.03-0.2-2.52-0.6c-0.5-0.4-0.75-1.08-0.75-2.06
			V22.4c0-0.75,0.17-1.25,0.52-1.49c0.35-0.24,0.8-0.37,1.36-0.37l0.77,0.03c1.18,0,2.02,0.2,2.52,0.6c0.5,0.4,0.75,1.09,0.75,2.06
			v3.26c0.44-0.15,0.97-0.29,1.6-0.42c0.63-0.12,1.23-0.18,1.81-0.18c2.37,0,4.18,0.56,5.43,1.68c1.25,1.12,1.88,2.74,1.88,4.87
			V40.96z"/>
		<path fill="#FFFFFF" d="M119.39,42.62c-1,0-1.79-0.28-2.37-0.83c-0.58-0.55-0.87-1.31-0.87-2.26V23.89c0-0.75,0.2-1.25,0.59-1.49
			c0.39-0.24,0.88-0.37,1.46-0.37l0.77,0.03c1.21,0,2.05,0.2,2.54,0.6c0.49,0.4,0.73,1.12,0.73,2.16v13.12h6.55
			c1.04,0,1.68,0.37,1.92,1.1c0.12,0.49,0.17,0.88,0.17,1.16c0,1.62-0.72,2.42-2.16,2.42H119.39z"/>
		<path fill="#FFFFFF" d="M140.46,43.12c-2.76-0.24-4.93-1.12-6.49-2.64c-1.57-1.52-2.35-3.48-2.35-5.9c0-0.6,0.01-0.95,0.03-1.06
			c0.21-2.48,1.09-4.37,2.65-5.68c1.55-1.31,3.52-1.96,5.88-1.96c1.35,0,2.6,0.22,3.76,0.66c1.16,0.44,2.14,1.06,2.93,1.86
			c1.23,1.31,1.85,2.83,1.85,4.58c0,0.35-0.01,0.56-0.03,0.63c-0.07,0.73-0.34,1.3-0.8,1.69c-0.46,0.4-1.1,0.6-1.92,0.6h-8.98
			c0.21,0.82,0.83,1.54,1.86,2.16c1.03,0.62,2.14,0.93,3.33,0.93c0.97,0,1.86-0.11,2.65-0.33c0.26-0.09,0.59-0.13,1.01-0.13
			c0.53,0,0.92,0.18,1.15,0.53c0.23,0.35,0.35,0.78,0.35,1.26c0,0.86-0.37,1.53-1.11,1.99c-0.74,0.46-1.78,0.73-3.1,0.8l-1.39,0.07
			L140.46,43.12z M138.23,30.63c-0.56,0.42-0.94,1.02-1.15,1.79l6.02,0.07c0.02-0.66-0.24-1.25-0.8-1.74
			c-0.56-0.5-1.28-0.75-2.16-0.75C139.42,30,138.79,30.21,138.23,30.63z"/>
		<path fill="#FFFFFF" d="M163.61,27.43c1.44,1.03,2.16,2.54,2.16,4.53v7.44c0,0.51-0.13,0.95-0.4,1.31
			c-0.27,0.37-0.7,0.71-1.31,1.05c-1.49,0.86-3.61,1.3-6.37,1.3c-2.58,0-4.57-0.46-5.97-1.38c-1.4-0.92-2.11-2.26-2.11-4.04
			c0-1.53,0.48-2.7,1.43-3.52c0.95-0.82,2.43-1.33,4.42-1.53l4.56-0.46V31.9c0-1.2-1.15-1.79-3.45-1.79c-1,0-2.15,0.16-3.45,0.46
			c-0.46,0.11-0.8,0.17-1.01,0.17c-0.46,0-0.82-0.18-1.08-0.55c-0.26-0.37-0.38-0.81-0.38-1.35c0-0.58,0.13-1.03,0.4-1.36
			c0.27-0.33,0.73-0.63,1.38-0.9c1.21-0.46,2.87-0.7,4.98-0.7C160.11,25.88,162.17,26.4,163.61,27.43z M159.07,38.82
			c0.45-0.08,0.78-0.18,0.99-0.32v-2.66l-2.51,0.2c-1.49,0.09-2.23,0.55-2.23,1.39c0,1,0.79,1.49,2.37,1.49
			C158.16,38.94,158.62,38.9,159.07,38.82z"/>
		<path fill="#FFFFFF" d="M169.25,28.14c1.62-1.51,3.84-2.26,6.65-2.26c1,0,1.81,0.13,2.44,0.4v-3.85c0-0.75,0.18-1.26,0.54-1.51
			c0.36-0.25,0.82-0.38,1.38-0.38l0.77,0.03c1.18,0,2.02,0.19,2.51,0.58c0.49,0.39,0.73,1.08,0.73,2.08v15.74
			c0,0.89-0.33,1.59-0.97,2.13c-0.65,0.53-1.71,1.02-3.17,1.46c-1.07,0.33-2.3,0.5-3.69,0.5c-2.99,0-5.35-0.76-7.05-2.29
			c-1.71-1.53-2.56-3.63-2.56-6.31C166.82,31.75,167.63,29.65,169.25,28.14z M173.8,31.35c-0.66,0.7-0.99,1.73-0.99,3.11
			c0,1.37,0.31,2.41,0.94,3.11c0.63,0.7,1.53,1.05,2.72,1.05c0.84,0,1.47-0.2,1.92-0.6V30.7c-0.44-0.27-1-0.4-1.67-0.4
			C175.43,30.3,174.46,30.65,173.8,31.35z"/>
		<path fill="#FFFFFF" d="M198,41.69c-1.34,0.93-3.28,1.4-5.83,1.4c-2.11,0-3.77-0.29-4.96-0.88c-1.2-0.59-1.79-1.41-1.79-2.47
			c0-0.53,0.12-0.98,0.37-1.35c0.24-0.37,0.6-0.55,1.06-0.55c0.39,0,0.75,0.08,1.08,0.23c1.39,0.51,2.73,0.76,4,0.76
			c0.7,0,1.24-0.1,1.64-0.3c0.39-0.2,0.59-0.46,0.59-0.8c0-0.31-0.14-0.55-0.42-0.73c-0.28-0.18-0.74-0.32-1.39-0.43l-1.04-0.2
			c-2.09-0.4-3.61-1.01-4.56-1.83c-0.95-0.82-1.43-1.96-1.43-3.42c0-0.82,0.19-1.56,0.56-2.23c0.37-0.66,0.89-1.22,1.57-1.66
			c1.42-0.93,3.26-1.39,5.54-1.39c1.93,0,3.44,0.27,4.54,0.8c1.1,0.53,1.65,1.28,1.65,2.26c0,0.53-0.12,0.99-0.37,1.36
			c-0.24,0.38-0.6,0.56-1.06,0.56c-0.21,0-0.42-0.03-0.63-0.1l-1.04-0.3c-0.91-0.22-1.76-0.33-2.58-0.33
			c-0.86,0-1.46,0.08-1.81,0.23c-0.4,0.18-0.59,0.44-0.59,0.8c0,0.24,0.12,0.44,0.35,0.6c0.23,0.16,0.67,0.3,1.32,0.43l1.08,0.23
			c2.16,0.47,3.73,1.12,4.7,1.96c0.97,0.84,1.46,1.96,1.46,3.35C200,39.44,199.33,40.76,198,41.69z"/>
	</g>
	<path fill="#FFFFFF" d="M32.74,23.13c0,7.32,0,14.65-0.01,21.97c0,0.23-0.03,0.49-0.13,0.7c-0.17,0.33-0.48,0.51-0.88,0.51
		c-1.61,0-3.22,0.01-4.83,0c-0.61-0.01-1-0.42-1.01-1c0-0.1,0-0.21,0-0.31c0-14.21,0-28.42,0-42.62c0-0.47-0.07-0.42,0.42-0.59
		c1.76-0.59,3.51-1.17,5.28-1.74c0.58-0.19,1.1,0.18,1.15,0.77c0.01,0.15,0.01,0.29,0.01,0.44C32.74,8.55,32.74,15.84,32.74,23.13z"
		/>
	<path fill="#FFFFFF" d="M24.11,2.66c0,0.13,0,0.22,0,0.31c0,14.07,0,28.14,0,42.21c0,0.76-0.39,1.13-1.18,1.13
		c-1.51,0-3.02-0.01-4.53,0.01c-0.65,0.01-1.16-0.44-1.15-1.12c0.01-13.04,0.01-26.09,0-39.13c0-0.25,0.08-0.4,0.32-0.5
		c2.08-0.94,4.17-1.88,6.25-2.82C23.89,2.72,23.98,2.7,24.11,2.66z"/>
	<path fill="#FFFFFF" d="M15.5,45.18c0,0.59-0.42,1.16-1.19,1.14c-0.49-0.01-0.98-0.01-1.48-0.01c-0.17,0-0.34,0-0.51,0
		c-0.84,0-1.67,0.01-2.51,0c-0.78,0-1.17-0.38-1.17-1.14v-6.49c0-1.22,0-2.44,0-3.66c0-4.66,0-9.31,0-13.97c0-3.22,0-6.43,0-9.65
		c0-0.26,0.1-0.41,0.3-0.56c2-1.5,4.12-2.83,6.32-4.04c0.06-0.03,0.13-0.05,0.24-0.1v0.31c0,2.72,0,5.44,0,8.16
		c0,7.06,0,14.11,0,21.17c0,0.44,0,0.88,0,1.32c0,2.04,0,4.07,0,6.11C15.5,44.24,15.5,44.71,15.5,45.18z"/>
	<path fill="#FFFFFF" d="M6.86,33.34c0,0.24,0,0.48,0,0.72v0.19c0,0,0,0,0,0c0,0.24,0,0.49,0,0.73v0c0,0.61,0,1.22,0,1.82v0.48
		c0,0.81,0,1.62,0,2.43v5.48c0,0.06,0,0.13-0.01,0.19c-0.01,0.05-0.01,0.1-0.02,0.15v0c-0.01,0.03-0.01,0.06-0.02,0.09
		c-0.1,0.33-0.32,0.54-0.66,0.64c-0.03,0.01-0.06,0.02-0.09,0.02c-0.11,0.02-0.23,0.04-0.36,0.04c-0.79,0-1.57,0-2.36,0H3.16
		c-0.68,0-1.35,0-2.03,0c-0.16,0-0.31-0.02-0.44-0.06c-0.44-0.13-0.69-0.48-0.69-1.01c0-1.48,0-2.96,0-4.44v-0.01
		c0-0.15,0-0.29,0-0.44v-0.07c0-0.59,0-1.18,0-1.76v-0.51c0-0.68,0-1.36,0-2.04c0,0,0,0,0,0c0-0.28,0-0.56,0-0.84V34.5
		c0-0.65,0-1.3,0-1.96v-0.78c0-1.19,0-2.39,0.01-3.59c0-0.28,0-0.57,0-0.85v-0.09c0-0.05,0-0.09,0-0.14c0-0.92,0.01-1.85,0.01-2.77
		c0-0.1,0-0.19,0.01-0.29c0-0.09,0.01-0.18,0.01-0.27c0-0.02,0-0.03,0-0.05c0.01-0.07,0.01-0.15,0.02-0.22
		c0.01-0.09,0.02-0.18,0.03-0.28c0-0.01,0-0.02,0-0.03c0-0.03,0.01-0.05,0.01-0.08c0.04-0.29,0.09-0.57,0.15-0.85
		c0.17-0.78,0.44-1.54,0.8-2.27c0.42-0.86,0.84-1.73,1.37-2.52c0.6-0.9,1.3-1.74,2.01-2.56c0.62-0.71,1.31-1.35,1.98-2.01
		c0.11-0.1,0.25-0.18,0.37-0.26c0.02,0.01,0.05,0.03,0.07,0.04v12.03c0,2.16,0,4.33,0,6.49V33.34z"/>
	<path fill="#FFFFFF" d="M36.69,10.36c-0.24-1.22-1.02-2.07-2.13-2.64c-0.62-0.32-1.28-0.46-1.95-0.34
		c-0.12,0.02-0.24,0.05-0.36,0.09c-2.21,0.71-4.38,1.51-6.49,2.46c-0.27,0.12-0.53,0.24-0.79,0.37c-0.33,0.16-0.65,0.31-0.98,0.47
		c-2.4,1.19-4.7,2.52-6.86,4.07c-0.55,0.4-1.1,0.81-1.63,1.23c-0.05,0.04-0.09,0.07-0.14,0.11c-0.33,0.26-0.65,0.53-0.96,0.8
		c-2.05,1.76-3.96,3.64-5.76,5.61v0c-0.05,0.05-0.09,0.1-0.14,0.15c-0.56,0.61-1.1,1.24-1.63,1.87c-0.05,0.05-0.09,0.11-0.14,0.16
		c-0.98,1.17-1.92,2.36-2.83,3.59c-0.02,0.03-0.04,0.05-0.06,0.08c-0.06,0.09-0.05,0.21,0.03,0.29c0.95,0.91,1.91,1.82,2.86,2.72
		c0.05,0.04,0.09,0.09,0.14,0.13c0.54,0.52,1.09,1.04,1.63,1.56c0.05,0.04,0.09,0.09,0.14,0.13c1.88,1.79,3.76,3.59,5.65,5.38
		c0.08,0.08,0.21,0.09,0.3,0.03c0.01,0,0.01-0.01,0.02-0.01c0.25-0.17,0.5-0.34,0.75-0.51c0.05-0.03,0.09-0.06,0.14-0.09
		c0.55-0.38,1.09-0.76,1.63-1.16c2.16-1.59,4.22-3.31,6.23-5.09c0.21-0.19,0.42-0.38,0.63-0.57c0.61-0.56,1.2-1.13,1.77-1.72
		c2.52-2.59,4.7-5.44,6.53-8.55c0.11-0.19,0.22-0.38,0.33-0.57c1.61-2.82,2.91-5.76,3.99-8.8C36.74,11.2,36.77,10.77,36.69,10.36z
		 M26.2,21.86c-0.15,0-0.3-0.01-0.45-0.02c-0.64-0.06-1.23-0.24-1.77-0.51c-1.49-0.76-2.51-2.27-2.5-4c0-1.72,1.02-3.2,2.5-3.96
		c0.54-0.27,1.14-0.45,1.77-0.51c0.16-0.01,0.32-0.02,0.48-0.02c2.6,0.01,4.71,2.03,4.71,4.52C30.94,19.85,28.81,21.88,26.2,21.86z"
		/>
	<path fill="#FFFFFF" d="M26.07,36.53c0,0.29-0.11,0.52-0.32,0.72c-2.78,2.65-5.56,5.3-8.35,7.95c-0.34,0.32-0.7,0.4-1.06,0.23
		c-0.37-0.17-0.51-0.48-0.46-0.94c0.18-1.67,0.36-3.33,0.54-5c0.03-0.26,0.13-0.47,0.35-0.63c1.67-1.23,3.15-2.65,4.63-4.07
		c1.09-1.05,2.18-2.1,3.28-3.15c0.42-0.4,1.04-0.39,1.34,0.05c0.1,0.15,0.15,0.35,0.15,0.54C26.19,32.95,26.06,35.81,26.07,36.53z"
		/>
	<path fill="#FFFFFF" d="M11.41,18.97c-0.93,0.88-1.85,1.77-2.78,2.65c-0.05,0.04-0.09,0.09-0.14,0.13
		c-0.54,0.52-1.09,1.04-1.63,1.55c-0.05,0.04-0.09,0.09-0.14,0.13c-0.11,0.11-0.23,0.22-0.34,0.32c-1.1,1.04-2.2,2.08-3.28,3.14
		c-0.28,0.27-0.58,0.4-0.97,0.39c-0.53-0.01-1.31,0.04-2.01,0.07c0,0,0,0,0,0c-0.06,0-0.11-0.05-0.11-0.11c0-0.05,0-0.09,0-0.14
		c0-0.92,0.01-1.85,0.01-2.77c0-0.37,0.03-0.74,0.07-1.11c0-0.02,0.01-0.04,0.02-0.05c0.35-0.47,0.83-0.88,1.28-1.28
		c1.21-1.07,2.31-2.24,3.33-3.48c0.13-0.16,0.38-0.29,0.58-0.31c0.47-0.05,0.95-0.1,1.42-0.15c0.05,0,0.09-0.01,0.14-0.01
		c0.54-0.06,1.09-0.11,1.63-0.16c0.05,0,0.09-0.01,0.14-0.01c0.71-0.07,1.41-0.14,2.12-0.21c0.39-0.04,0.7,0.14,0.86,0.46
		C11.77,18.34,11.7,18.68,11.41,18.97z"/>
	<path fill="#FFFFFF" d="M12.48,40.15c-1.28,1.22-2.56,2.45-3.85,3.67l-0.11,0.11C7.96,44.46,7.39,45,6.83,45.54v0
		c-0.05,0.05-0.1,0.1-0.16,0.15c-0.21,0.2-0.41,0.39-0.62,0.59l0,0c-0.11,0.02-0.23,0.04-0.36,0.04c-0.79,0-1.57,0-2.36,0H3.26
		c1.16-1.1,2.31-2.2,3.47-3.3l0.14-0.13c0.59-0.56,1.18-1.12,1.77-1.69c0.8-0.77,1.61-1.53,2.41-2.3c0.26-0.24,0.54-0.4,0.91-0.35
		c0.39,0.06,0.66,0.27,0.79,0.62C12.87,39.54,12.77,39.87,12.48,40.15z"/>
	<path fill="#FFFFFF" d="M6.86,34.25C6.86,34.25,6.86,34.25,6.86,34.25c0,0.01-0.01,0.01-0.02,0.02c-0.01,0.01-0.01,0.01-0.02,0.02
		L6.7,34.4c-2.14,2.05-4.29,4.09-6.43,6.14C0.18,40.63,0.09,40.71,0,40.8v-0.01c0-0.15,0-0.29,0-0.44v-0.07c0-0.59,0-1.18,0-1.76
		v-0.47c1.8-1.72,3.6-3.43,5.4-5.15c0.38-0.36,0.91-0.41,1.3-0.16c0.05,0.03,0.1,0.07,0.14,0.11c0.01,0,0.01,0.01,0.02,0.01
		s0.01,0.01,0.02,0.02C7.27,33.26,7.27,33.83,6.86,34.25z"/>
	<path fill="#FFFFFF" d="M3.51,40.44c1.54-1.49,3.1-2.97,4.66-4.45c0.42-0.4,1.02-0.4,1.41-0.03c0.39,0.38,0.38,0.94-0.04,1.34
		c-1.54,1.47-3.08,2.94-4.63,4.42c-0.32,0.3-0.69,0.41-1.12,0.24c-0.37-0.14-0.59-0.48-0.59-0.87C3.22,40.9,3.28,40.65,3.51,40.44z"
		/>
	<path fill="#FFFFFF" d="M3.77,31.48c-1.18,1.14-2.38,2.27-3.57,3.4c-0.08,0.08-0.15,0.13-0.2,0.17V34.5c0-0.65,0-1.3,0-1.96V32.5
		c0-0.03,0.01-0.06,0.03-0.08c0.79-0.75,1.57-1.51,2.36-2.25c0.41-0.39,1-0.39,1.39-0.03C4.18,30.51,4.18,31.08,3.77,31.48z"/>
	<path fill="#FFFFFF" d="M22.71,17.39c0-1.88,1.59-3.38,3.57-3.37c1.96,0.01,3.54,1.52,3.53,3.39c-0.01,1.87-1.59,3.38-3.55,3.38
		C24.29,20.78,22.7,19.27,22.71,17.39z"/>
</g>
</svg>
