<?xml version="1.0" encoding="utf-8"?>
<!-- Generator: Adobe Illustrator 17.0.0, SVG Export Plug-In . SVG Version: 6.00 Build 0)  -->
<!DOCTYPE svg PUBLIC "-//W3C//DTD SVG 1.1//EN" "http://www.w3.org/Graphics/SVG/1.1/DTD/svg11.dtd">
<svg version="1.1" id="Camada_1" xmlns="http://www.w3.org/2000/svg" xmlns:xlink="http://www.w3.org/1999/xlink" x="0px" y="0px"
	 width="86.05px" height="111.63px" viewBox="0 0 86.05 111.63" enable-background="new 0 0 86.05 111.63" xml:space="preserve">
<g>
	<path fill="#FFFFFF" d="M76.7,55.73c0,17.65,0,35.3-0.01,52.95c0,0.57-0.06,1.19-0.31,1.68c-0.39,0.79-1.12,1.24-2.06,1.24
		c-3.77,0.01-7.54,0.03-11.31-0.01c-1.43-0.01-2.33-1-2.38-2.4c-0.01-0.25,0-0.5,0-0.75c0-34.24,0-68.48,0-102.71
		c0-1.13-0.17-1.01,0.99-1.41c4.11-1.42,8.23-2.82,12.36-4.19c1.36-0.45,2.58,0.43,2.7,1.85c0.03,0.35,0.02,0.71,0.02,1.06
		C76.7,20.6,76.7,38.16,76.7,55.73z"/>
	<path fill="#FFFFFF" d="M56.49,6.41c0,0.31,0,0.53,0,0.75c0,33.91,0,67.81,0,101.72c0,1.82-0.91,2.73-2.77,2.73
		c-3.54,0.01-7.07-0.04-10.61,0.02c-1.53,0.02-2.71-1.07-2.7-2.69c0.03-31.43,0.02-62.87,0.01-94.3c0-0.6,0.19-0.96,0.74-1.22
		c4.88-2.25,9.76-4.52,14.64-6.79C55.98,6.56,56.18,6.51,56.49,6.41z"/>
	<path fill="#FFFFFF" d="M36.31,108.88c0,1.43-0.97,2.78-2.79,2.75c-1.15-0.02-2.31-0.03-3.46-0.03c-0.4,0-0.8,0-1.2,0
		c-1.96,0-3.92,0.02-5.88,0.01c-1.84-0.01-2.75-0.93-2.75-2.75V93.22c0-2.94,0-5.88,0-8.83c0-11.22,0-22.44,0-33.65
		c0-7.75,0-15.5-0.01-23.26c0-0.62,0.24-0.98,0.71-1.34c4.69-3.61,9.65-6.83,14.81-9.75c0.14-0.08,0.29-0.13,0.55-0.25v0.75
		c0,6.55,0,13.1,0,19.66c0,17.01,0,34.01,0.01,51.02c0,1.06,0,2.12,0,3.18c0,4.91,0.01,9.82,0.01,14.73
		C36.3,106.6,36.3,107.74,36.31,108.88z"/>
	<path fill="#FFFFFF" d="M16.08,80.33c0,0.58,0,1.16,0,1.74v0.47c0,0,0,0,0,0c0,0.59,0,1.18,0,1.77v0c0,1.47,0,2.93,0,4.4v1.16
		c0,1.95,0,3.9,0,5.86v13.2c0,0.16-0.01,0.31-0.02,0.45c-0.01,0.13-0.03,0.25-0.06,0.37v0c-0.02,0.07-0.03,0.14-0.05,0.2
		c-0.23,0.79-0.75,1.3-1.55,1.53c-0.07,0.02-0.14,0.04-0.21,0.05c-0.26,0.06-0.54,0.09-0.85,0.09c-1.84,0-3.68,0.01-5.52,0.01H7.4
		c-1.58,0-3.16,0-4.75-0.01c-0.38,0-0.73-0.05-1.03-0.14c-1.04-0.32-1.61-1.16-1.61-2.44c0-3.57,0-7.14-0.01-10.71V98.3
		c0-0.35,0-0.7,0-1.05v-0.18c0-1.42,0-2.83,0-4.25V91.6c0-1.64,0-3.27,0-4.91c0,0,0,0,0,0c0-0.68,0-1.35,0-2.03v-1.52
		c0-1.57,0-3.14,0-4.72v-1.88c0-2.88,0.01-5.76,0.01-8.64c0-0.68,0-1.37,0-2.05v-0.21c0-0.11,0-0.22,0-0.33
		c0.01-2.23,0.01-4.45,0.02-6.68c0-0.23,0.01-0.46,0.01-0.69c0.01-0.22,0.02-0.43,0.03-0.65c0-0.04,0-0.08,0.01-0.13
		c0.01-0.18,0.03-0.36,0.04-0.54c0.02-0.22,0.04-0.44,0.07-0.66c0-0.02,0-0.05,0.01-0.07c0.01-0.06,0.01-0.12,0.02-0.19
		c0.09-0.69,0.21-1.37,0.35-2.05c0.41-1.87,1.04-3.7,1.88-5.47c0.99-2.07,1.96-4.17,3.21-6.08c1.41-2.16,3.04-4.2,4.71-6.17
		c1.44-1.7,3.08-3.25,4.64-4.85c0.25-0.25,0.57-0.43,0.86-0.64c0.06,0.03,0.12,0.07,0.17,0.1v28.98c0,5.21,0,10.42,0,15.64V80.33z"
		/>
	<path fill="#31B88A" d="M85.95,24.96c-0.55-2.95-2.38-4.98-5-6.36c-1.45-0.77-3-1.11-4.58-0.81c-0.28,0.05-0.57,0.12-0.85,0.22
		c-5.18,1.71-10.27,3.63-15.21,5.92c-0.62,0.29-1.24,0.58-1.86,0.88c-0.77,0.37-1.53,0.75-2.29,1.14
		c-5.63,2.86-11.02,6.08-16.07,9.8c-1.3,0.96-2.57,1.95-3.82,2.97c-0.11,0.09-0.21,0.17-0.32,0.26c-0.76,0.63-1.52,1.27-2.26,1.93
		c-4.79,4.25-9.27,8.77-13.49,13.53v0c-0.11,0.12-0.21,0.24-0.32,0.36c-1.3,1.48-2.57,2.98-3.82,4.5c-0.11,0.13-0.21,0.26-0.32,0.39
		c-2.29,2.81-4.5,5.7-6.63,8.65C9.09,68.41,9.04,68.48,9,68.54c-0.15,0.22-0.12,0.51,0.07,0.7c2.23,2.19,4.47,4.38,6.7,6.56
		c0.11,0.1,0.21,0.21,0.32,0.31c1.28,1.25,2.55,2.5,3.83,3.75c0.11,0.1,0.21,0.21,0.32,0.31c4.41,4.32,8.82,8.64,13.23,12.97
		c0.19,0.19,0.49,0.21,0.71,0.07c0.02-0.01,0.03-0.02,0.05-0.03c0.59-0.4,1.18-0.81,1.76-1.23c0.11-0.07,0.21-0.15,0.32-0.23
		c1.29-0.91,2.56-1.84,3.81-2.79c5.07-3.84,9.89-7.97,14.58-12.26c0.5-0.46,1-0.92,1.48-1.38c1.43-1.35,2.81-2.73,4.15-4.15
		c5.91-6.24,11.01-13.11,15.29-20.61c0.26-0.45,0.51-0.91,0.77-1.36c3.76-6.79,6.81-13.89,9.34-21.2
		C86.06,26.98,86.14,25.96,85.95,24.96z M61.37,52.69c-0.36,0-0.71-0.02-1.06-0.05c-1.49-0.14-2.89-0.57-4.15-1.24
		c-3.5-1.84-5.87-5.46-5.86-9.63c0.01-4.13,2.38-7.72,5.86-9.55c1.26-0.66,2.66-1.09,4.15-1.23c0.37-0.04,0.75-0.05,1.14-0.05
		c6.1,0.02,11.04,4.89,11.03,10.89C72.48,47.83,67.48,52.72,61.37,52.69z"/>
	<path fill="#31B88A" d="M61.07,88.02c0.01,0.7-0.25,1.25-0.75,1.74c-6.52,6.39-13.03,12.78-19.55,19.17
		c-0.8,0.78-1.64,0.96-2.48,0.56c-0.86-0.41-1.2-1.16-1.08-2.26c0.43-4.02,0.85-8.03,1.27-12.05c0.06-0.63,0.31-1.14,0.82-1.53
		c3.91-2.95,7.37-6.39,10.85-9.8c2.57-2.52,5.11-5.06,7.67-7.58c0.99-0.97,2.44-0.93,3.14,0.13c0.24,0.36,0.35,0.86,0.36,1.29
		C61.35,79.41,61.05,86.3,61.07,88.02z"/>
	<path fill="#31B88A" d="M26.73,45.7c-2.17,2.13-4.34,4.26-6.51,6.39C20.11,52.2,20,52.3,19.9,52.4c-1.27,1.25-2.55,2.5-3.82,3.75
		c-0.11,0.1-0.21,0.21-0.32,0.31c-0.26,0.26-0.53,0.52-0.79,0.78c-2.57,2.52-5.15,5.02-7.69,7.56C6.63,65.45,5.92,65.76,5,65.74
		c-1.23-0.02-3.08,0.09-4.7,0.17c0,0,0,0,0,0c-0.15,0.01-0.27-0.12-0.27-0.27c0-0.11,0-0.22,0-0.33c0.01-2.23,0.01-4.45,0.02-6.68
		c0-0.89,0.06-1.78,0.16-2.66c0.01-0.05,0.02-0.09,0.05-0.13c0.82-1.13,1.94-2.12,3-3.08c2.83-2.58,5.42-5.4,7.81-8.39
		c0.3-0.38,0.88-0.7,1.37-0.76c1.11-0.13,2.22-0.25,3.32-0.36c0.11-0.01,0.21-0.02,0.32-0.03c1.27-0.14,2.55-0.27,3.82-0.39
		c0.11-0.01,0.21-0.02,0.32-0.03c1.66-0.17,3.31-0.33,4.97-0.5c0.91-0.09,1.64,0.34,2.01,1.1C27.57,44.19,27.42,45.02,26.73,45.7z"
		/>
	<path fill="#31B88A" d="M29.23,96.75c-3.01,2.94-6.01,5.89-9.01,8.84l-0.27,0.26c-1.32,1.29-2.64,2.59-3.96,3.88v0
		c-0.12,0.12-0.25,0.24-0.37,0.36c-0.48,0.48-0.96,0.95-1.44,1.43l0,0c-0.26,0.06-0.54,0.09-0.85,0.09c-1.84,0-3.68,0.01-5.52,0.01
		H7.64c2.71-2.66,5.41-5.31,8.12-7.96l0.32-0.31c1.38-1.36,2.76-2.71,4.14-4.07c1.88-1.85,3.76-3.69,5.65-5.54
		c0.6-0.59,1.27-0.97,2.13-0.84c0.91,0.13,1.55,0.64,1.84,1.49C30.15,95.28,29.92,96.08,29.23,96.75z"/>
	<path fill="#31B88A" d="M16.08,82.54C16.08,82.54,16.08,82.54,16.08,82.54c-0.01,0.02-0.02,0.03-0.04,0.04
		c-0.02,0.02-0.03,0.03-0.05,0.05l-0.28,0.28c-5.02,4.94-10.05,9.86-15.07,14.79c-0.21,0.2-0.42,0.41-0.63,0.62V98.3
		c0-0.35,0-0.7,0-1.05v-0.18c0-1.42,0-2.83,0-4.25v-1.13c4.21-4.14,8.43-8.28,12.65-12.4c0.89-0.87,2.12-0.99,3.05-0.39
		c0.12,0.07,0.23,0.16,0.33,0.26c0.01,0.01,0.02,0.02,0.04,0.03c0.01,0.01,0.03,0.02,0.04,0.04C17.04,80.16,17.03,81.52,16.08,82.54
		z"/>
	<path fill="#31B88A" d="M8.22,97.44c3.62-3.6,7.26-7.16,10.91-10.73c0.97-0.95,2.4-0.96,3.3-0.07c0.91,0.91,0.89,2.27-0.1,3.23
		c-3.61,3.55-7.23,7.09-10.84,10.64c-0.75,0.73-1.62,0.98-2.62,0.58c-0.86-0.34-1.38-1.16-1.37-2.08
		C7.53,98.57,7.69,97.95,8.22,97.44z"/>
	<path fill="#31B88A" d="M8.82,75.87c-2.78,2.74-5.57,5.47-8.35,8.2c-0.19,0.18-0.34,0.32-0.47,0.4v-1.33c0-1.57,0-3.14,0-4.72
		v-0.09c0-0.07,0.03-0.14,0.08-0.19c1.84-1.82,3.68-3.63,5.54-5.43c0.97-0.94,2.33-0.95,3.25-0.07C9.8,73.52,9.8,74.9,8.82,75.87z"
		/>
	<path fill="#31B88A" d="M53.2,41.89c0.01-4.54,3.72-8.15,8.36-8.13c4.6,0.02,8.29,3.66,8.27,8.17c-0.02,4.51-3.72,8.14-8.31,8.14
		C56.9,50.07,53.19,46.43,53.2,41.89z"/>
</g>
</svg>
